0
SECTION
2
HEADER
9
$INSUNITS
70
4
9
$ACADVER
1
AC1014
9
$HANDSEED
5
FFFF
0
ENDSEC
0
SECTION
2
TABLES
0
TABLE
2
VPORT
5
8
100
AcDbSymbolTable
0
ENDTAB
0
TABLE
2
LTYPE
5
5
100
AcDbSymbolTable
0
LTYPE
5
14
100
AcDbSymbolTableRecord
100
AcDbLinetypeTableRecord
2
BYBLOCK
70
0
0
LTYPE
5
15
100
AcDbSymbolTableRecord
100
AcDbLinetypeTableRecord
2
BYLAYER
70
0
0
ENDTAB
0
TABLE
2
LAYER
5
2
100
AcDbSymbolTable
70
2
0
LAYER
5
50
100
AcDbSymbolTableRecord
100
AcDbLayerTableRecord
2
0
70
0
6
CONTINUOUS
0
ENDTAB
0
TABLE
2
STYLE
5
3
100
AcDbSymbolTable
70
1
0
STYLE
5
11
100
AcDbSymbolTableRecord
100
AcDbTextStyleTableRecord
2
STANDARD
70
0
0
ENDTAB
0
TABLE
2
VIEW
5
6
100
AcDbSymbolTable
70
0
0
ENDTAB
0
TABLE
2
UCS
5
7
100
AcDbSymbolTable
70
0
0
ENDTAB
0
TABLE
2
APPID
5
9
100
AcDbSymbolTable
70
2
0
APPID
5
12
100
AcDbSymbolTableRecord
100
AcDbRegAppTableRecord
2
ACAD
70
0
0
ENDTAB
0
TABLE
2
DIMSTYLE
5
A
100
AcDbSymbolTable
70
1
0
ENDTAB
0
TABLE
2
BLOCK_RECORD
5
1
100
AcDbSymbolTable
70
1
0
BLOCK_RECORD
5
1F
100
AcDbSymbolTableRecord
100
AcDbBlockTableRecord
2
*MODEL_SPACE
0
BLOCK_RECORD
5
1B
100
AcDbSymbolTableRecord
100
AcDbBlockTableRecord
2
*PAPER_SPACE
0
ENDTAB
0
ENDSEC
0
SECTION
2
BLOCKS
0
BLOCK
5
20
100
AcDbEntity
100
AcDbBlockBegin
2
*MODEL_SPACE
0
ENDBLK
5
21
100
AcDbEntity
100
AcDbBlockEnd
0
BLOCK
5
1C
100
AcDbEntity
100
AcDbBlockBegin
2
*PAPER_SPACE
0
ENDBLK
5
1D
100
AcDbEntity
100
AcDbBlockEnd
0
ENDSEC
0
SECTION
2
ENTITIES
0
LWPOLYLINE
5
100
100
AcDbEntity
8
0
100
AcDbPolyline
90
8
70
1
43
0.0
10
-57
20
-59.999999999999993
42
-0.41421356237309553
10
-62
20
-55
10
-62.000000000000014
20
55
42
-0.41421356237309553
10
-57
20
60
10
53
20
59.999999999999993
42
-0.41421356237309553
10
58
20
55
10
58.000000000000007
20
-55
42
-0.41421356237309553
10
53
20
-60
0
CIRCLE
5
101
100
AcDbEntity
8
0
100
AcDbCircle
10
49.614224659297903
20
51.53120288330414
30
0
40
1.6000000000000103
210
0
220
0
230
1
0
CIRCLE
5
102
100
AcDbEntity
8
0
100
AcDbCircle
10
6.4342246592974162
20
0.73120288330438932
30
0
40
1.6000000000000079
210
0
220
0
230
1
0
CIRCLE
5
103
100
AcDbEntity
8
0
100
AcDbCircle
10
34.374224659297489
20
0.73120288330418504
30
0
40
1.6000000000000059
210
0
220
0
230
1
0
CIRCLE
5
104
100
AcDbEntity
8
0
100
AcDbCircle
10
1.354224659297798
20
52.801202883304512
30
0
40
1.6000000000000048
210
0
220
0
230
1
0
LWPOLYLINE
5
105
100
AcDbEntity
8
0
100
AcDbPolyline
90
4
70
1
43
0.0
10
-40.649999999999991
20
-35.000000000000007
10
-43.350000000000001
20
-35.000000000000007
10
-43.350000000000001
20
-40
10
-40.649999999999991
20
-40
0
LWPOLYLINE
5
106
100
AcDbEntity
8
0
100
AcDbPolyline
90
4
70
1
43
0.0
10
28
20
-31.350000000000001
10
33
20
-31.350000000000001
10
33
20
-28.650000000000006
10
28
20
-28.650000000000006
0
LWPOLYLINE
5
107
100
AcDbEntity
8
0
100
AcDbPolyline
90
4
70
1
43
0.0
10
21.649999999999999
20
-20
10
21.649999999999991
20
-25
10
24.349999999999994
20
-25
10
24.349999999999994
20
-20
0
LWPOLYLINE
5
108
100
AcDbEntity
8
0
100
AcDbPolyline
90
4
70
1
43
0.0
10
-47.000000000000014
20
-31.349999999999998
10
-47.000000000000014
20
-28.650000000000002
10
-52.000000000000014
20
-28.650000000000002
10
-52.000000000000014
20
-31.349999999999998
0
LWPOLYLINE
5
109
100
AcDbEntity
8
0
100
AcDbPolyline
90
4
70
1
43
0.0
10
-37
20
-28.650000000000006
10
-37
20
-31.350000000000001
10
-32
20
-31.350000000000001
10
-31.999999999999996
20
-28.650000000000006
0
LWPOLYLINE
5
110
100
AcDbEntity
8
0
100
AcDbPolyline
90
4
70
1
43
0.0
10
21.649999999999999
20
-40
10
24.350000000000001
20
-40
10
24.350000000000001
20
-35.000000000000007
10
21.649999999999999
20
-35.000000000000007
0
LWPOLYLINE
5
111
100
AcDbEntity
8
0
100
AcDbPolyline
90
4
70
1
43
0.0
10
12.999999999999989
20
-31.349999999999998
10
17.999999999999989
20
-31.349999999999998
10
17.999999999999989
20
-28.650000000000002
10
12.999999999999989
20
-28.650000000000002
0
LWPOLYLINE
5
112
100
AcDbEntity
8
0
100
AcDbPolyline
90
4
70
1
43
0.0
10
-43.350000000000001
20
-20
10
-43.350000000000009
20
-25
10
-40.650000000000006
20
-25
10
-40.650000000000006
20
-20
0
ELLIPSE
5
113
100
AcDbEntity
8
0
100
AcDbEllipse
10
-54.842837593483864
20
-70.807241462608829
30
-2.2204460492503131e-15
11
-4.9999999999999893
21
9.384163624158649e-15
31
0.0
40
0.99999999674660123
41
4.7123889803846897
42
7.8539816339744828
0
LINE
5
114
100
AcDbEntity
8
0
100
AcDbLine
10
-54.842837593483871
20
-75.80724144634182
30
-2.2204460492503131e-15
11
-52.371839789780012
21
-75.807241446341877
31
-2.2204460492503131e-15
0
ELLIPSE
5
115
100
AcDbEntity
8
0
100
AcDbEllipse
10
-52.371839789780111
20
-100.80724136500714
30
-2.2204460492503131e-15
11
25.000000000000252
21
-1.0325372665288586e-13
31
0.0
40
0.99999999674660123
41
1.1750383520244367
42
1.5707963267948966
0
ELLIPSE
5
116
100
AcDbEntity
8
0
100
AcDbEllipse
10
-39.842839984732144
20
-70.819341171200165
30
-2.2204460492503131e-15
11
7.5000000000000009
21
-2.4855543567792187e-07
31
0.0
40
0.99999999674660101
41
4.3166310387549469
42
5.1081469882958785
0
ELLIPSE
5
117
100
AcDbEntity
8
0
100
AcDbEllipse
10
-27.313840179684252
20
-100.80724136500693
30
-2.2204460492503131e-15
11
25.000000000000007
21
-8.7571020435106561e-08
31
0.0
40
0.99999999674660123
41
1.5707963302977355
42
1.9665543050682028
0
LINE
5
118
100
AcDbEntity
8
0
100
AcDbLine
10
-27.313840179684206
20
-75.807241446341891
30
-2.2204460492503131e-15
11
110.15715952725802
21
-75.807241446342189
31
-2.2204460492503131e-15
0
ELLIPSE
5
119
100
AcDbEntity
8
0
100
AcDbEllipse
10
110.15715952725813
20
-70.80724146260917
30
-2.2204460492503131e-15
11
5
21
4.2082756801631623e-15
31
0.0
40
0.99999999674660112
41
4.7123889803846648
42
7.8539816339744792
0
LINE
5
120
100
AcDbEntity
8
0
100
AcDbLine
10
110.15715952725814
20
-65.807241478876165
30
-2.2204460492503131e-15
11
-27.371918965047435
21
-65.807241478875909
31
-2.2204460492503131e-15
0
ELLIPSE
5
121
100
AcDbEntity
8
0
100
AcDbEllipse
10
-27.371918965047382
20
-40.807241560210905
30
-2.2204460492503131e-15
11
-25.000000000000021
21
5.773458279134634e-14
31
0.0
40
0.99999999674660123
41
1.1769743109318844
42
1.5707963267948966
0
ELLIPSE
5
122
100
AcDbEntity
8
0
100
AcDbEllipse
10
-39.842839984732144
20
-70.819341171200165
30
-2.2204460492503131e-15
11
-7.4999999999999876
21
1.4234405321111863e-08
31
0.0
40
0.99999999674660112
41
4.318566966419592
42
5.1062109981456194
0
ELLIPSE
5
123
100
AcDbEntity
8
0
100
AcDbEllipse
10
-52.313761004416712
20
-40.807241560210826
30
-2.2204460492503131e-15
11
-25.000000000000014
21
-6.398010010677524e-08
31
0.0
40
0.99999999674660123
41
1.5707963242356904
42
1.9646183400987012
0
LINE
5
124
100
AcDbEntity
8
0
100
AcDbLine
10
-52.313761004416762
20
-65.807241478875866
30
-2.2204460492503131e-15
11
-54.842837593483857
21
-65.807241478875824
31
-2.2204460492503131e-15
0
ELLIPSE
5
125
100
AcDbEntity
8
0
100
AcDbEllipse
10
-39.83762562238153
20
-70.819909702704237
30
-2.2204460492503131e-15
11
3.5999999882877649
21
0.00029039300618342596
31
0.0
40
0.99999999674660134
41
0
42
6.2831853071795862
0
LWPOLYLINE
5
126
100
AcDbEntity
8
0
100
AcDbPolyline
90
16
70
1
43
0.0
10
108.67722366622675
20
-44.941636400942322
42
-0.41421356237309592
10
111.67722366622678
20
-47.941636400942322
10
111.67722366622681
20
-61.952932557447376
42
-0.4142135623730942
10
108.67722366622679
20
-64.952932557447383
10
60.977222921168732
20
-64.952932557447383
10
60.977222921168732
20
-59.952932557447348
10
64.977222921168718
20
-59.952932557447348
10
64.977222921168718
20
-56.302932557447363
10
71.977222921168718
20
-56.302932557447349
10
71.977222921168718
20
-53.602932557447353
10
64.977222921168703
20
-53.602932557447367
10
64.977222921168732
20
-49.952932557447348
10
60.977222921168718
20
-49.952932557447348
10
60.977222921168718
20
-44.952932557447348
10
80.977222921168718
20
-44.952932557447348
10
80.977222921168718
20
-44.941636400942279
0
LWPOLYLINE
5
127
100
AcDbEntity
8
0
100
AcDbPolyline
90
8
70
1
43
0.0
10
106.77722292116869
20
-49.105422812876462
10
84.677222921168678
20
-49.105422812876498
42
0.41421356237305601
10
84.477222921168675
20
-49.305422812876493
10
84.477222921168675
20
-60.705422812876492
42
0.41421356237312101
10
84.67722292116872
20
-60.905422812876495
10
106.77722292116871
20
-60.905422812876459
42
0.41421356237313406
10
106.9772229211687
20
-60.705422812876463
10
106.97722292116867
20
-49.305422812876472
42
0.41421356237305601
0
LWPOLYLINE
5
128
100
AcDbEntity
8
0
100
AcDbPolyline
90
14
70
1
43
0.0
10
97.395247317859457
20
-44.081263689972772
42
-0.41421356237309048
10
93.395247317859457
20
-40.081263689972779
10
93.395247317859457
20
-28.081263689972769
10
98.395247317859457
20
-28.081263689972769
10
98.395247317859457
20
-32.081263689972772
10
108.39524731785946
20
-32.081263689972786
10
108.39524731785946
20
-28.081263689972786
10
113.39524731785949
20
-28.081263689972786
10
113.39524731785946
20
-40.081263689972801
42
-0.41421356237309176
10
109.39524731785946
20
-44.081263689972786
10
104.89524731785947
20
-44.081263689972793
10
104.89524731785946
20
-39.081263689972786
10
101.89524731785946
20
-39.081263689972786
10
101.89524731785946
20
-44.081263689972793
0
LWPOLYLINE
5
129
100
AcDbEntity
8
0
100
AcDbPolyline
90
4
70
1
43
0.0
10
66.097509548735545
20
-17.955748977550094
10
63.397509548735549
20
-17.955748977550094
10
63.397509548735549
20
-22.955748977550108
10
66.097509548735545
20
-22.955748977550108
0
LWPOLYLINE
5
130
100
AcDbEntity
8
0
100
AcDbPolyline
90
4
70
1
43
0.0
10
66.097509548735545
20
-32.955748977550094
10
63.397509548735549
20
-32.955748977550094
10
63.397509548735549
20
-37.955748977550101
10
66.097509548735545
20
-37.955748977550094
0
LWPOLYLINE
5
131
100
AcDbEntity
8
0
100
AcDbPolyline
90
18
70
1
43
0.0
10
59.614008662360149
20
-22.693568507027138
42
-0.29123513757201508
10
65.668158139630947
20
-13.18123897480695
10
65.836907177186589
20
-13.102369440873582
42
-0.18570941647238132
10
73.358219348073305
20
-12.575200198219001
10
78.761100212860981
20
-14.230298053383184
10
78.336638531176447
20
-24.417378413811104
10
78.336638531176476
20
-25.42701164441338
42
0.053580645284616701
10
77.843312621757292
20
-26.017378413811095
10
74.236638531176467
20
-26.017378413811084
42
0.99999999999999989
10
74.236638531176453
20
-30.01737841381108
10
77.843312621757292
20
-30.017378413811109
42
0.053580645284608194
10
78.336638531176447
20
-30.607745183208827
10
78.336638531176447
20
-31.617378413811103
10
78.766066173733719
20
-41.923641835186174
10
73.297083986733227
20
-43.520030299923945
42
-0.18228432209636344
10
65.909078692742312
20
-42.952988557012816
10
65.668158139630933
20
-42.840387667466416
42
-0.29123513757201558
10
59.614008662360156
20
-33.328058135246231
0
LWPOLYLINE
5
132
100
AcDbEntity
8
0
100
AcDbPolyline
90
8
70
1
43
0.0
10
89.362186368559776
20
-35.831316745968429
42
-0.3332739528199038
10
86.483007233802326
20
-39.671077231732738
10
82.958197447754543
20
-40.699964415936137
10
83.336638531176447
20
-31.617378413811117
10
83.336638531176433
20
-30.607745183208856
42
0.053580645284644214
10
83.829964440595603
20
-30.017378413811116
10
87.436638531176442
20
-30.01737841381113
42
0.33613604029495842
10
89.362186368559762
20
-28.557994290333866
0
LWPOLYLINE
5
133
100
AcDbEntity
8
0
100
AcDbPolyline
90
8
70
1
43
0.0
10
86.533790805953132
20
-16.611354354906339
42
-0.32959709381337077
10
89.362186368559776
20
-20.435925316763406
10
89.362186368559762
20
-27.476762537288387
42
0.33613604029495653
10
87.436638531176456
20
-26.017378413811137
10
83.829964440595603
20
-26.017378413811119
42
0.053580645284618145
10
83.336638531176447
20
-25.427011644413394
10
83.336638531176447
20
-24.417378413811118
10
82.965846258584008
20
-15.518363871591777
0
LWPOLYLINE
5
134
100
AcDbEntity
8
0
100
AcDbPolyline
90
6
70
1
43
0.0
10
89.362186368559762
20
-27.476762537288391
10
89.362186368559776
20
-28.557994290333873
42
-0.33613604029495592
10
87.436638531176456
20
-30.017378413811137
10
83.829964440595603
20
-30.017378413811123
42
0.30333704529041899
10
83.829964440595603
20
-26.017378413811119
10
87.436638531176456
20
-26.017378413811137
42
-0.33613604029495475
0
CIRCLE
5
135
100
AcDbEntity
8
0
100
AcDbCircle
10
87.436638531176456
20
-28.017378413811134
30
-2.2204460492503131e-15
40
0.59999999999999898
210
0
220
-0
230
1
0
CIRCLE
5
136
100
AcDbEntity
8
0
100
AcDbCircle
10
85.43663853117647
20
-28.017378413811134
30
-2.2204460492503131e-15
40
0.59999999999999998
210
0
220
-0
230
1
0
CIRCLE
5
137
100
AcDbEntity
8
0
100
AcDbCircle
10
85.43663853117647
20
-28.017378413811134
30
2.2204460492503131e-15
40
0.59999999999999998
210
0
220
0
230
1
0
CIRCLE
5
138
100
AcDbEntity
8
0
100
AcDbCircle
10
87.436638531176456
20
-28.017378413811134
30
-2.2204460492503131e-15
40
0.59999999999999898
210
0
220
0
230
1
0
LWPOLYLINE
5
139
100
AcDbEntity
8
0
100
AcDbPolyline
90
8
70
1
43
0.0
10
82.958197447754543
20
-40.699964415936137
10
81.451860924304285
20
-41.139661999110764
42
0.86894433584585984
10
80.168624015365879
20
-41.514237108136392
10
78.766066173733719
20
-41.923641835186174
10
78.336638531176447
20
-31.617378413811103
10
78.336638531176447
20
-30.607745183208831
42
0.40385329224090888
10
83.336638531176447
20
-30.607745183208841
10
83.336638531176447
20
-31.617378413811117
0
CIRCLE
5
140
100
AcDbEntity
8
0
100
AcDbCircle
10
80.836638531176447
20
-34.817378413811106
30
-2.2204460492503131e-15
40
0.67499999999999905
210
0
220
-0
230
1
0
CIRCLE
5
141
100
AcDbEntity
8
0
100
AcDbCircle
10
80.836638531176419
20
-39.217378413811097
30
-2.2204460492503131e-15
40
0.67499999999999905
210
0
220
-0
230
1
0
CIRCLE
5
142
100
AcDbEntity
8
0
100
AcDbCircle
10
80.836638531176447
20
-32.617378413811096
30
2.2204460492503131e-15
40
0.67499999999999905
210
0
220
-0
230
1
0
CIRCLE
5
143
100
AcDbEntity
8
0
100
AcDbCircle
10
80.836638531176419
20
-37.017378413811109
30
-2.2204460492503131e-15
40
0.67499999999999905
210
0
220
-0
230
1
0
CIRCLE
5
144
100
AcDbEntity
8
0
100
AcDbCircle
10
80.836638531176447
20
-32.617378413811096
30
-2.2204460492503131e-15
40
0.67499999999999905
210
0
220
-0
230
1
0
CIRCLE
5
145
100
AcDbEntity
8
0
100
AcDbCircle
10
80.836638531176447
20
-34.817378413811106
30
-2.2204460492503131e-15
40
0.67499999999999905
210
0
220
-0
230
1
0
CIRCLE
5
146
100
AcDbEntity
8
0
100
AcDbCircle
10
80.836638531176419
20
-37.017378413811109
30
-2.2204460492503131e-15
40
0.67499999999999905
210
0
220
-0
230
1
0
CIRCLE
5
147
100
AcDbEntity
8
0
100
AcDbCircle
10
80.836638531176419
20
-39.217378413811097
30
-2.2204460492503131e-15
40
0.67499999999999905
210
0
220
-0
230
1
0
CIRCLE
5
148
100
AcDbEntity
8
0
100
AcDbCircle
10
80.836638531176419
20
-37.017378413811109
30
2.2204460492503131e-15
40
0.67499999999999905
210
0
220
-0
230
1
0
CIRCLE
5
149
100
AcDbEntity
8
0
100
AcDbCircle
10
80.836638531176447
20
-34.817378413811106
30
2.2204460492503131e-15
40
0.67499999999999905
210
0
220
-0
230
1
0
LWPOLYLINE
5
150
100
AcDbEntity
8
0
100
AcDbPolyline
90
2
70
1
43
0.0
10
81.451860924304285
20
-41.139661999110764
10
80.168624015365879
20
-41.514237108136392
42
-0.86894433584587116
0
LWPOLYLINE
5
151
100
AcDbEntity
8
0
100
AcDbPolyline
90
4
70
1
43
0.0
10
74.236638531176453
20
-26.01737841381108
10
77.843312621757292
20
-26.017378413811095
42
0.30333704529042493
10
77.843312621757292
20
-30.017378413811102
10
74.236638531176453
20
-30.017378413811091
42
-0.99999999999999989
0
CIRCLE
5
152
100
AcDbEntity
8
0
100
AcDbCircle
10
76.236638531176453
20
-28.017378413811084
30
2.2204460492503131e-15
40
0.59999999999999998
210
0
220
-0
230
1
0
CIRCLE
5
153
100
AcDbEntity
8
0
100
AcDbCircle
10
74.236638531176453
20
-28.017378413811084
30
-2.2204460492503131e-15
40
0.59999999999999898
210
0
220
-0
230
1
0
CIRCLE
5
154
100
AcDbEntity
8
0
100
AcDbCircle
10
74.236638531176453
20
-28.017378413811084
30
2.2204460492503131e-15
40
0.59999999999999898
210
0
220
0
230
1
0
CIRCLE
5
155
100
AcDbEntity
8
0
100
AcDbCircle
10
76.236638531176453
20
-28.017378413811084
30
2.2204460492503131e-15
40
0.59999999999999998
210
0
220
0
230
1
0
CIRCLE
5
156
100
AcDbEntity
8
0
100
AcDbCircle
10
80.83663853117649
20
-19.017378413811109
30
2.2204460492503131e-15
40
0.67499999999999905
210
0
220
-0
230
1
0
LWPOLYLINE
5
157
100
AcDbEntity
8
0
100
AcDbPolyline
90
8
70
1
43
0.0
10
81.370990405173728
20
-15.02980183064825
10
82.965846258584008
20
-15.518363871591777
10
83.336638531176447
20
-24.417378413811118
10
83.336638531176447
20
-25.427011644413405
42
0.4038532922409141
10
78.336638531176447
20
-25.42701164441338
10
78.336638531176447
20
-24.417378413811104
10
78.761100212860981
20
-14.230298053383184
10
80.162969182193663
20
-14.659741230538071
42
0.69204617448714945
0
CIRCLE
5
158
100
AcDbEntity
8
0
100
AcDbCircle
10
80.836638531176447
20
-23.417378413811122
30
2.2204460492503131e-15
40
0.67499999999999905
210
0
220
-0
230
1
0
CIRCLE
5
159
100
AcDbEntity
8
0
100
AcDbCircle
10
80.83663853117649
20
-16.81737841381111
30
-2.2204460492503131e-15
40
0.67499999999999905
210
0
220
-0
230
1
0
CIRCLE
5
160
100
AcDbEntity
8
0
100
AcDbCircle
10
80.83663853117649
20
-21.217378413811115
30
2.2204460492503131e-15
40
0.67499999999999905
210
0
220
-0
230
1
0
CIRCLE
5
161
100
AcDbEntity
8
0
100
AcDbCircle
10
80.836638531176447
20
-23.417378413811122
30
2.2204460492503131e-15
40
0.67499999999999905
210
0
220
0
230
1
0
CIRCLE
5
162
100
AcDbEntity
8
0
100
AcDbCircle
10
80.83663853117649
20
-21.217378413811115
30
2.2204460492503131e-15
40
0.67499999999999905
210
0
220
0
230
1
0
CIRCLE
5
163
100
AcDbEntity
8
0
100
AcDbCircle
10
80.83663853117649
20
-19.017378413811109
30
2.2204460492503131e-15
40
0.67499999999999905
210
0
220
0
230
1
0
CIRCLE
5
164
100
AcDbEntity
8
0
100
AcDbCircle
10
80.83663853117649
20
-16.81737841381111
30
2.2204460492503131e-15
40
0.67499999999999905
210
0
220
0
230
1
0
LWPOLYLINE
5
165
100
AcDbEntity
8
0
100
AcDbPolyline
90
2
70
1
43
0.0
10
80.162969182193677
20
-14.659741230538067
10
81.370990405173728
20
-15.029801830648225
42
-0.69204617448715977
0
CIRCLE
5
166
100
AcDbEntity
8
0
100
AcDbCircle
10
102.96620699722081
20
-14.366986499970862
30
-2.2204460492503131e-15
40
7.9500000000000002
210
0
220
-0
230
1
0
CIRCLE
5
167
100
AcDbEntity
8
0
100
AcDbCircle
10
111.81620699722082
20
19.733013500029166
30
-2.2204460492503131e-15
40
0.97500000000000031
210
0
220
-0
230
1
0
CIRCLE
5
168
100
AcDbEntity
8
0
100
AcDbCircle
10
111.8162069972208
20
-22.966986499970858
30
-2.2204460492503131e-15
40
0.97500000000000142
210
0
220
-0
230
1
0
CIRCLE
5
169
100
AcDbEntity
8
0
100
AcDbCircle
10
94.1162069972208
20
-22.966986499970858
30
-2.2204460492503131e-15
40
0.97500000000000142
210
0
220
-0
230
1
0
CIRCLE
5
170
100
AcDbEntity
8
0
100
AcDbCircle
10
94.116206997220814
20
19.733013500029166
30
-2.2204460492503131e-15
40
0.97500000000000031
210
0
220
-0
230
1
0
LWPOLYLINE
5
171
100
AcDbEntity
8
0
100
AcDbPolyline
90
20
70
1
43
0.0
10
82.966206997220809
20
-0.26698649997086044
10
75.966206997220795
20
-0.26698649997086044
10
75.966206997220795
20
3.3830135000291417
10
71.966206997220795
20
3.3830135000291417
10
71.966206997220795
20
8.3830135000291506
10
89.716206997220809
20
8.3830135000291506
10
89.716206997220823
20
21.133013500029154
42
-0.41421356237309503
10
92.716206997220809
20
24.133013500029143
10
113.21620699722082
20
24.133013500029172
42
-0.41421356237309503
10
116.21620699722084
20
21.133013500029165
10
116.21620699722081
20
-24.366986499970871
42
-0.41421356237309243
10
113.21620699722082
20
-27.366986499970871
10
92.716206997220795
20
-27.366986499970849
42
-0.41421356237309503
10
89.716206997220795
20
-24.366986499970842
10
89.716206997220795
20
-11.616986499970858
10
71.966206997220795
20
-11.616986499970858
10
71.966206997220795
20
-6.6169864999708583
10
75.966206997220795
20
-6.6169864999708583
10
75.966206997220795
20
-2.9669864999708562
10
82.966206997220809
20
-2.9669864999708562
0
CIRCLE
5
172
100
AcDbEntity
8
0
100
AcDbCircle
10
102.96620699722081
20
11.133013500029136
30
2.2204460492503131e-15
40
7.9500000000000002
210
0
220
-0
230
1
0
CIRCLE
5
173
100
AcDbEntity
8
0
100
AcDbCircle
10
75.16861491451921
20
47.59820232233983
30
2.2204460492503131e-15
40
7.9500000000000002
210
-0
220
0
230
1
0
CIRCLE
5
174
100
AcDbEntity
8
0
100
AcDbCircle
10
66.318614914519216
20
13.498202322339878
30
-2.2204460492503131e-15
40
0.97500000000000031
210
0
220
-0
230
1
0
CIRCLE
5
175
100
AcDbEntity
8
0
100
AcDbCircle
10
66.318614914519202
20
56.198202322339853
30
-2.2204460492503131e-15
40
0.97500000000000142
210
0
220
-0
230
1
0
CIRCLE
5
176
100
AcDbEntity
8
0
100
AcDbCircle
10
84.018614914519233
20
56.198202322339874
30
-2.2204460492503131e-15
40
0.97500000000000142
210
0
220
-0
230
1
0
CIRCLE
5
177
100
AcDbEntity
8
0
100
AcDbCircle
10
84.018614914519233
20
13.498202322339878
30
-2.2204460492503131e-15
40
0.97500000000000031
210
0
220
-0
230
1
0
LWPOLYLINE
5
178
100
AcDbEntity
8
0
100
AcDbPolyline
90
20
70
1
43
0.0
10
95.168614914519225
20
33.498202322339878
10
102.16861491451922
20
33.498202322339878
10
102.16861491451921
20
29.848202322339876
10
106.16861491451922
20
29.848202322339876
10
106.16861491451922
20
24.848202322339887
10
88.418614914519225
20
24.848202322339876
10
88.418614914519225
20
12.09820232233989
42
-0.41421356237309503
10
85.418614914519225
20
9.0982023223398834
10
64.918614914519196
20
9.0982023223399011
42
-0.41421356237309503
10
61.91861491451921
20
12.09820232233989
10
61.918614914519196
20
57.598202322339851
42
-0.4142135623730942
10
64.918614914519196
20
60.598202322339851
10
85.418614914519239
20
60.598202322339873
42
-0.41421356237309503
10
88.418614914519225
20
57.59820232233988
10
88.41861491451921
20
44.848202322339894
10
106.16861491451922
20
44.848202322339894
10
106.16861491451922
20
39.848202322339894
10
102.16861491451922
20
39.848202322339894
10
102.16861491451922
20
36.198202322339874
10
95.168614914519225
20
36.198202322339874
0
CIRCLE
5
179
100
AcDbEntity
8
0
100
AcDbCircle
10
75.16861491451921
20
22.09820232233989
30
-2.2204460492503131e-15
40
7.9500000000000002
210
-0
220
0
230
1
0
LWPOLYLINE
5
180
100
AcDbEntity
8
0
100
AcDbPolyline
90
14
70
1
43
0.0
10
105.39715940686982
20
63.574677324867316
42
-0.41421356237309503
10
109.39715940686982
20
59.574677324867309
10
109.39715940686982
20
47.574677324867316
10
104.39715940686982
20
47.574677324867316
10
104.39715940686982
20
51.574677324867324
10
94.397159406869818
20
51.574677324867324
10
94.397159406869818
20
47.574677324867316
10
89.397159406869818
20
47.574677324867316
10
89.397159406869804
20
59.574677324867309
42
-0.41421356237309309
10
93.397159406869804
20
63.574677324867316
10
97.897159406869818
20
63.574677324867316
10
97.897159406869818
20
58.574677324867316
10
100.8971594068698
20
58.574677324867316
10
100.8971594068698
20
63.574677324867316
0
ENDSEC
0
SECTION
2
OBJECTS
0
DICTIONARY
5
C
100
AcDbDictionary
3
ACAD_GROUP
350
D
3
ACAD_MLINESTYLE
350
17
0
DICTIONARY
5
D
100
AcDbDictionary
0
DICTIONARY
5
1A
330
C
100
AcDbDictionary
0
DICTIONARY
5
17
100
AcDbDictionary
0
ENDSEC
0
EOF
